<?xml version="1.0" encoding="utf-8"?>
<!-- Generator: Adobe Illustrator 22.1.0, SVG Export Plug-In . SVG Version: 6.00 Build 0)  -->
<svg version="1.1" id="Lager_1" xmlns="http://www.w3.org/2000/svg" xmlns:xlink="http://www.w3.org/1999/xlink" x="0px" y="0px"
	 viewBox="0 0 76.6 76.5" style="enable-background:new 0 0 76.6 76.5;" xml:space="preserve">
<style type="text/css">
	.st0{fill:#00864A;}
</style>
<g>
	<path class="st0" d="M44.2,34.9h15.4L38.3,6.5L16.9,34.9h15.4L14,59.1h48.6L44.2,34.9z M26.9,29.9l11.4-15.1l11.4,15.1H26.9z
		 M38.3,35.2l14.2,18.9H24L38.3,35.2z M38.3,0C17.2,0,0,17.2,0,38.3s17.2,38.3,38.3,38.3s38.3-17.2,38.3-38.3
		C76.5,17.2,59.3,0,38.3,0z M38.3,71.5C19.9,71.5,5,56.6,5,38.3C5,19.9,19.9,5,38.3,5s33.2,14.9,33.2,33.2
		C71.5,56.6,56.6,71.5,38.3,71.5z"/>
</g>
</svg>
