<?xml version="1.0" encoding="UTF-8"?>
<svg width="42px" height="42px" viewBox="0 0 42 42" version="1.1" xmlns="http://www.w3.org/2000/svg" xmlns:xlink="http://www.w3.org/1999/xlink">
    <!-- Generator: Sketch 47.1 (45422) - http://www.bohemiancoding.com/sketch -->
    <title>keps</title>
    <desc>Created with Sketch.</desc>
    <defs></defs>
    <g id="Symbols" stroke="none" stroke-width="1" fill="none" fill-rule="evenodd">
        <g id="Lorem-ipsum-dolor-si2" transform="translate(0.000000, -22.000000)">
            <g id="Lorem-ipsum-dolor-si" transform="translate(0.000000, 20.000000)">
                <g id="keps" transform="translate(0.000000, 2.000000)">
                    <circle id="Oval" fill="#FFEB46" cx="21" cy="21" r="21"></circle>
                    <path d="M32.2471131,22.3268091 C32.2474895,22.3265582 32.2479914,22.3260564 32.2481168,22.3258055 C34.8427511,19.7310458 34.8427511,15.5246294 32.2481168,12.9303715 C30.9509879,11.6332426 29.2508821,10.9846154 27.5506508,10.9846154 C25.8504195,10.9846154 24.1500627,11.6332426 22.8526829,12.9303715 L22.8526829,12.930497 L20.9739223,14.8092576 L19.0961654,12.9316261 C19.095789,12.9311243 19.0952871,12.9308734 19.0950362,12.9303715 C17.7976564,11.6332426 16.0974251,10.9846154 14.3973193,10.9846154 C12.697088,10.9846154 10.9969821,11.6332426 9.69972774,12.9303715 C7.10521896,15.5247548 7.10521896,19.7310458 9.69972774,22.3258055 L9.6998532,22.3258055 L20.9740477,33.6 L32.2471131,22.3268091 Z M27.5506508,12.8665125 C28.8224368,12.8665125 30.0180688,13.3617023 30.9174901,14.2612491 C31.8169115,15.1604196 32.3122268,16.3560515 32.3122268,17.6278376 C32.3122268,18.8997491 31.816786,20.0955065 30.9173647,20.9950533 L20.9740477,30.9386211 L11.0304799,20.9951788 C9.1739257,19.1383736 9.17380024,16.1175524 11.0303544,14.2611237 C11.9297758,13.3617023 13.1254077,12.8665125 14.3973193,12.8665125 C15.6038662,12.8665125 16.7419121,13.3122712 17.6235182,14.125878 L20.9739223,17.4707619 L24.1833096,14.2612491 C25.0827309,13.3617023 26.2787393,12.8665125 27.5506508,12.8665125 L27.5506508,12.8665125 Z" id="Fill-1" fill="#008639"></path>
                </g>
            </g>
        </g>
    </g>
</svg>