<?xml version="1.0" encoding="UTF-8"?>
<svg width="82px" height="70px" viewBox="0 0 82 70" version="1.1" xmlns="http://www.w3.org/2000/svg" xmlns:xlink="http://www.w3.org/1999/xlink">
    <!-- Generator: Sketch 47.1 (45422) - http://www.bohemiancoding.com/sketch -->
    <title>Fill 1</title>
    <desc>Created with Sketch.</desc>
    <defs></defs>
    <g id="Symbols" stroke="none" stroke-width="1" fill="none" fill-rule="evenodd">
        <g id="keps" transform="translate(-24.000000, -34.000000)" fill="#008639">
            <path d="M99.8124931,69.1067902 C99.813658,69.1060135 99.8152114,69.1044602 99.8155997,69.1036836 C107.84661,61.0722845 107.84661,48.0524243 99.8155997,40.0225785 C95.8006768,36.0076556 90.5384445,34 85.2758238,34 C80.0132032,34 74.7501942,36.0076556 70.7344946,40.0225785 L70.7344946,40.0229668 L64.9192833,45.8381782 L59.1071785,40.0264618 C59.1060135,40.0249085 59.1044602,40.0241318 59.1036836,40.0225785 C55.087984,36.0076556 49.8253634,34 44.563131,34 C39.3005104,34 34.038278,36.0076556 30.0229668,40.0225785 C21.9923444,48.0528126 21.9923444,61.0722845 30.0229668,69.1036836 L30.0233552,69.1036836 L64.9196716,104 L99.8124931,69.1067902 Z M85.2758238,39.8249196 C89.2123044,39.8249196 92.91307,41.3576501 95.6969932,44.1419616 C98.4809165,46.9251082 100.014035,50.6258737 100.014035,54.5623544 C100.014035,58.4992233 98.4805281,62.2003772 95.6966049,64.9846888 L64.9196716,95.7623988 L34.1419616,64.9850771 C28.3954843,59.2378231 28.395096,49.8876623 34.1415733,44.1415733 C36.9254965,41.3576501 40.6262621,39.8249196 44.563131,39.8249196 C48.2976811,39.8249196 51.8202041,41.2046488 54.5489848,43.7229557 L64.9192833,54.0761678 L74.8531011,44.1419616 C77.6370243,41.3576501 81.3389548,39.8249196 85.2758238,39.8249196 L85.2758238,39.8249196 Z" id="Fill-1"></path>
        </g>
    </g>
</svg>