<svg width="141" height="34" viewBox="0 0 141 34" fill="none" xmlns="http://www.w3.org/2000/svg">
<mask id="mask0_1046_1191" style="mask-type:luminance" maskUnits="userSpaceOnUse" x="1" y="1" width="140" height="32">
<path d="M140.252 1H1V33H140.252V1Z" fill="white"/>
</mask>
<g mask="url(#mask0_1046_1191)">
<path d="M41.2827 21.1621C42.6212 21.8314 44.5036 22.3752 46.7206 22.417C48.3938 22.4588 49.9833 22.166 50.0252 20.7856C50.067 17.5229 40.6971 19.4052 40.7807 13.0471C40.8644 8.82222 45.5075 7.77647 49.4814 7.8183C51.3637 7.86013 53.2461 8.15294 54.5846 8.57124L54.1663 12.1686C52.8278 11.583 51.2801 11.332 49.7742 11.2902C48.4356 11.2484 46.2186 11.332 46.2186 12.8797C46.1768 15.7242 55.5467 13.9673 55.4631 20.2837C55.3794 24.8431 51.0709 25.9725 46.6369 25.8889C44.7964 25.8471 42.4958 25.5542 40.7389 25.0523L41.2827 21.1621Z" fill="#008739"/>
</g>
<mask id="mask1_1046_1191" style="mask-type:luminance" maskUnits="userSpaceOnUse" x="1" y="1" width="140" height="32">
<path d="M140.252 1H1V33H140.252V1Z" fill="white"/>
</mask>
<g mask="url(#mask1_1046_1191)">
<path d="M67.6358 7.73465C74.1613 7.73465 77.5495 11.1647 77.5495 16.8118C77.5495 22.3752 74.0776 25.8889 67.6358 25.8889C61.1521 25.8889 57.722 22.417 57.722 16.8118C57.722 11.1647 61.1103 7.73465 67.6358 7.73465ZM67.6358 22.417C70.8567 22.417 72.1116 19.698 72.1116 16.8118C72.1116 13.7582 70.8149 11.2065 67.6358 11.2065C64.4149 11.2065 63.16 13.7582 63.16 16.8118C63.16 19.698 64.4149 22.417 67.6358 22.417Z" fill="#008739"/>
</g>
<mask id="mask2_1046_1191" style="mask-type:luminance" maskUnits="userSpaceOnUse" x="1" y="1" width="140" height="32">
<path d="M140.252 1H1V33H140.252V1Z" fill="white"/>
</mask>
<g mask="url(#mask2_1046_1191)">
<path d="M80.6033 8.02762H87.798C94.7 8.02762 99.5105 9.9518 99.5105 16.7283C99.5105 23.2956 94.5327 25.5544 87.798 25.5544H80.6033V8.02762V8.02762ZM85.8739 22.0825H87.9235C91.8556 22.0825 94.0725 20.2838 94.0725 16.7701C94.0725 13.2982 91.7719 11.4577 87.9235 11.4577H85.8739V22.0825V22.0825Z" fill="#008739"/>
</g>
<mask id="mask3_1046_1191" style="mask-type:luminance" maskUnits="userSpaceOnUse" x="1" y="1" width="140" height="32">
<path d="M140.252 1H1V33H140.252V1Z" fill="white"/>
</mask>
<g mask="url(#mask3_1046_1191)">
<path d="M102.271 8.02762H111.683C115.197 8.02762 118.083 9.44984 118.083 12.4616C118.083 14.8041 116.828 16.3518 114.276 16.8956V16.9374C115.992 17.3557 116.075 18.6525 117.079 20.7858L119.003 25.5544H113.482L112.352 22.3753C111.265 19.3636 110.595 18.6106 108.629 18.6106H107.542V25.5544H102.271V8.02762ZM107.542 15.3061H108.922C110.637 15.3061 112.771 15.2642 112.771 13.2564C112.771 11.625 110.93 11.3322 108.922 11.3322H107.542V15.3061Z" fill="#008739"/>
</g>
<mask id="mask4_1046_1191" style="mask-type:luminance" maskUnits="userSpaceOnUse" x="1" y="1" width="140" height="32">
<path d="M140.252 1H1V33H140.252V1Z" fill="white"/>
</mask>
<g mask="url(#mask4_1046_1191)">
<path d="M126.156 8.02762H132.64L140.253 25.5544H134.48L133.016 21.8315H125.571L124.023 25.5544H118.627L126.156 8.02762ZM129.377 11.6668H129.335L126.784 18.527H131.761L129.377 11.6668Z" fill="#008739"/>
</g>
<mask id="mask5_1046_1191" style="mask-type:luminance" maskUnits="userSpaceOnUse" x="1" y="1" width="140" height="32">
<path d="M140.252 1H1V33H140.252V1Z" fill="white"/>
</mask>
<g mask="url(#mask5_1046_1191)">
<path d="M66.7151 4.80631C66.7151 5.8939 65.6694 6.77233 64.3726 6.77233C63.0759 6.77233 62.0302 5.8939 62.0302 4.80631C62.0302 3.71873 63.0759 2.8403 64.3726 2.8403C65.6694 2.79847 66.7151 3.6769 66.7151 4.80631ZM73.6171 4.80631C73.6171 5.8939 72.5713 6.77233 71.2746 6.77233C69.9779 6.77233 68.9321 5.8939 68.9321 4.80631C68.9321 3.71873 69.9779 2.8403 71.2746 2.8403C72.5713 2.79847 73.6171 3.6769 73.6171 4.80631Z" fill="#008739"/>
</g>
<mask id="mask6_1046_1191" style="mask-type:luminance" maskUnits="userSpaceOnUse" x="1" y="1" width="140" height="32">
<path d="M140.252 1H1V33H140.252V1Z" fill="white"/>
</mask>
<g mask="url(#mask6_1046_1191)">
<path d="M16.3937 14.4691C14.846 16.5188 8.69696 24.6757 8.69696 24.6757H24.8015C24.8015 24.6757 18.4852 16.3097 17.0211 14.3855" stroke="#008739" stroke-width="2.44087"/>
</g>
<mask id="mask7_1046_1191" style="mask-type:luminance" maskUnits="userSpaceOnUse" x="1" y="1" width="140" height="32">
<path d="M140.252 1H1V33H140.252V1Z" fill="white"/>
</mask>
<g mask="url(#mask7_1046_1191)">
<path d="M16.7284 5.47586L9.86829 14.553H23.5885L16.7284 5.47586Z" stroke="#008739" stroke-width="2.44087"/>
</g>
<path d="M16.7285 31.9542C24.9991 31.9542 31.7037 25.2496 31.7037 16.9791C31.7037 8.70852 24.9991 2.00391 16.7285 2.00391C8.45797 2.00391 1.75336 8.70852 1.75336 16.9791C1.75336 25.2496 8.45797 31.9542 16.7285 31.9542Z" stroke="#008739" stroke-width="2.44087"/>
</svg>
